<svg width="25" height="25" viewBox="0 0 25 25" fill="none" xmlns="http://www.w3.org/2000/svg">
<g clip-path="url(#clip0_131_88)">
<path d="M21.7657 1.47058H19.5599V3.67646C19.5599 4.11764 19.1922 4.41176 18.8246 4.41176C18.4569 4.41176 18.0893 4.11764 18.0893 3.67646V1.47058H6.32456V3.67646C6.32456 4.11764 5.95692 4.41176 5.58927 4.41176C5.22162 4.41176 4.85398 4.11764 4.85398 3.67646V1.47058H2.64809C1.54515 1.47058 0.736328 2.42646 0.736328 3.67646V6.32352H24.2657V3.67646C24.2657 2.42646 22.9422 1.47058 21.7657 1.47058ZM0.736328 7.86764V21.3235C0.736328 22.6471 1.54515 23.5294 2.72162 23.5294H21.8393C23.0157 23.5294 24.3393 22.5735 24.3393 21.3235V7.86764H0.736328ZM7.28045 20.2206H5.51574C5.22162 20.2206 4.9275 20 4.9275 19.6323V17.7941C4.9275 17.5 5.14809 17.2059 5.51574 17.2059H7.35398C7.64809 17.2059 7.94221 17.4265 7.94221 17.7941V19.6323C7.86868 20 7.64809 20.2206 7.28045 20.2206ZM7.28045 13.6029H5.51574C5.22162 13.6029 4.9275 13.3823 4.9275 13.0147V11.1765C4.9275 10.8823 5.14809 10.5882 5.51574 10.5882H7.35398C7.64809 10.5882 7.94221 10.8088 7.94221 11.1765V13.0147C7.86868 13.3823 7.64809 13.6029 7.28045 13.6029ZM13.1628 20.2206H11.3246C11.0304 20.2206 10.7363 20 10.7363 19.6323V17.7941C10.7363 17.5 10.9569 17.2059 11.3246 17.2059H13.1628C13.4569 17.2059 13.751 17.4265 13.751 17.7941V19.6323C13.751 20 13.5304 20.2206 13.1628 20.2206ZM13.1628 13.6029H11.3246C11.0304 13.6029 10.7363 13.3823 10.7363 13.0147V11.1765C10.7363 10.8823 10.9569 10.5882 11.3246 10.5882H13.1628C13.4569 10.5882 13.751 10.8088 13.751 11.1765V13.0147C13.751 13.3823 13.5304 13.6029 13.1628 13.6029ZM19.0452 20.2206H17.2069C16.9128 20.2206 16.6187 20 16.6187 19.6323V17.7941C16.6187 17.5 16.8393 17.2059 17.2069 17.2059H19.0452C19.3393 17.2059 19.6334 17.4265 19.6334 17.7941V19.6323C19.6334 20 19.4128 20.2206 19.0452 20.2206ZM19.0452 13.6029H17.2069C16.9128 13.6029 16.6187 13.3823 16.6187 13.0147V11.1765C16.6187 10.8823 16.8393 10.5882 17.2069 10.5882H19.0452C19.3393 10.5882 19.6334 10.8088 19.6334 11.1765V13.0147C19.6334 13.3823 19.4128 13.6029 19.0452 13.6029Z" fill="#353535"/>
</g>
<defs>
<clipPath id="clip0_131_88">
<rect width="25" height="25" fill="white" transform="translate(0.000976562)"/>
</clipPath>
</defs>
</svg>
