<svg width="15" height="13" viewBox="0 0 15 13" fill="none" xmlns="http://www.w3.org/2000/svg">
<path d="M9.05185 2.35508C9.74541 2.78994 10.2317 3.5258 10.3203 4.37998C10.6031 4.51214 10.9171 4.58814 11.2499 4.58814C12.465 4.58814 13.4498 3.6033 13.4498 2.3884C13.4498 1.17331 12.465 0.188477 11.2499 0.188477C10.0464 0.188851 9.0702 1.15609 9.05185 2.35508ZM7.61063 6.85939C8.82572 6.85939 9.81056 5.87436 9.81056 4.65946C9.81056 3.44456 8.82553 2.45972 7.61063 2.45972C6.39573 2.45972 5.41033 3.44475 5.41033 4.65965C5.41033 5.87455 6.39573 6.85939 7.61063 6.85939ZM8.5438 7.00933H6.67709C5.12392 7.00933 3.86035 8.27309 3.86035 9.82625V12.1091L3.86615 12.1449L4.0234 12.1941C5.50562 12.6572 6.79334 12.8117 7.85324 12.8117C9.92344 12.8117 11.1234 12.2214 11.1973 12.1838L11.3443 12.1095H11.36V9.82625C11.3605 8.27309 10.097 7.00933 8.5438 7.00933ZM12.1835 4.73827H10.3311C10.3111 5.47938 9.99476 6.14673 9.49438 6.6267C10.875 7.03722 11.8851 8.31746 11.8851 9.82962V10.5331C13.714 10.4661 14.7679 9.94774 14.8373 9.91292L14.9843 9.83842H15V7.55482C15 6.00184 13.7364 4.73827 12.1835 4.73827ZM3.75047 4.58851C4.18083 4.58851 4.58124 4.46291 4.92044 4.24894C5.02827 3.54565 5.40528 2.93108 5.94384 2.51251C5.94609 2.47133 5.95002 2.43052 5.95002 2.38896C5.95002 1.17388 4.96499 0.189038 3.75047 0.189038C2.53519 0.189038 1.55054 1.17388 1.55054 2.38896C1.55054 3.60349 2.53519 4.58851 3.75047 4.58851ZM5.72613 6.6267C5.22819 6.14917 4.91295 5.48537 4.88993 4.74875C4.82123 4.7437 4.75328 4.73827 4.68326 4.73827H2.81674C1.26357 4.73827 0 6.00184 0 7.55482V9.83805L0.00580307 9.87324L0.163048 9.92285C1.35212 10.2941 2.41333 10.4652 3.33508 10.5191V9.82962C3.33545 8.31746 4.34519 7.0376 5.72613 6.6267Z" fill="#927B58"/>
</svg>
