<svg width="24" height="24" viewBox="0 0 24 24" fill="none" xmlns="http://www.w3.org/2000/svg">
<g clip-path="url(#clip0_198_5730)">
<path d="M17 2H7C4.25024 2 2 4.24927 2 7V17C2 19.7498 4.25024 22 7 22H17C19.7498 22 22 19.7498 22 17V7C22 4.24927 19.7498 2 17 2ZM12 16.1665C9.69849 16.1665 7.83325 14.3005 7.83325 12C7.83325 9.69849 9.69849 7.83325 12 7.83325C14.3005 7.83325 16.1667 9.69849 16.1667 12C16.1667 14.3005 14.3005 16.1665 12 16.1665ZM17.4167 7.83325C16.7257 7.83325 16.1667 7.27349 16.1667 6.58325C16.1667 5.89302 16.7257 5.33325 17.4167 5.33325C18.1078 5.33325 18.6667 5.89302 18.6667 6.58325C18.6667 7.27349 18.1078 7.83325 17.4167 7.83325Z" fill="#927B58"/>
</g>
<defs>
<clipPath id="clip0_198_5730">
<rect width="20" height="20" fill="white" transform="translate(2 2)"/>
</clipPath>
</defs>
</svg>
