<svg width="30" height="30" viewBox="0 0 30 30" fill="none" xmlns="http://www.w3.org/2000/svg">
<mask id="path-1-inside-1_108_1373" fill="white">
<path d="M15 30C12.0333 30 9.13318 29.1203 6.66645 27.472C4.19971 25.8238 2.27712 23.4811 1.14181 20.7402C0.00649225 17.9994 -0.290558 14.9834 0.288221 12.0736C0.867 9.16393 2.29561 6.49118 4.3934 4.3934C6.49119 2.29561 9.16393 0.866998 12.0736 0.28822C14.9834 -0.290558 17.9994 0.00649291 20.7403 1.14181C23.4811 2.27712 25.8238 4.19971 27.472 6.66645C29.1203 9.13319 30 12.0333 30 15H29.6456C29.6456 12.1034 28.7866 9.2718 27.1774 6.86335C25.5681 4.45489 23.2808 2.57773 20.6046 1.46924C17.9285 0.360749 14.9838 0.0707168 12.1428 0.63582C9.30182 1.20092 6.69223 2.59578 4.644 4.644C2.59578 6.69222 1.20092 9.30182 0.63582 12.1428C0.0707168 14.9838 0.360748 17.9285 1.46924 20.6046C2.57773 23.2808 4.45489 25.5681 6.86335 27.1774C9.2718 28.7866 12.1034 29.6456 15 29.6456V30Z"/>
</mask>
<path d="M15 30C12.0333 30 9.13318 29.1203 6.66645 27.472C4.19971 25.8238 2.27712 23.4811 1.14181 20.7402C0.00649225 17.9994 -0.290558 14.9834 0.288221 12.0736C0.867 9.16393 2.29561 6.49118 4.3934 4.3934C6.49119 2.29561 9.16393 0.866998 12.0736 0.28822C14.9834 -0.290558 17.9994 0.00649291 20.7403 1.14181C23.4811 2.27712 25.8238 4.19971 27.472 6.66645C29.1203 9.13319 30 12.0333 30 15H29.6456C29.6456 12.1034 28.7866 9.2718 27.1774 6.86335C25.5681 4.45489 23.2808 2.57773 20.6046 1.46924C17.9285 0.360749 14.9838 0.0707168 12.1428 0.63582C9.30182 1.20092 6.69223 2.59578 4.644 4.644C2.59578 6.69222 1.20092 9.30182 0.63582 12.1428C0.0707168 14.9838 0.360748 17.9285 1.46924 20.6046C2.57773 23.2808 4.45489 25.5681 6.86335 27.1774C9.2718 28.7866 12.1034 29.6456 15 29.6456V30Z" stroke="url(#paint0_linear_108_1373)" stroke-width="2" mask="url(#path-1-inside-1_108_1373)"/>
<g clip-path="url(#clip0_108_1373)">
<path d="M13.1849 21.5625C12.7783 21.5625 12.3907 21.3807 12.1246 21.0626L8.7736 17.0538C8.27181 16.4534 8.33964 15.5497 8.92522 15.0351C9.51054 14.52 10.3918 14.5896 10.8942 15.1903L13.0849 17.8109L20.0087 9.2499C21.0804 7.71055 22.2022 8.56298 21.1257 10.1089L14.3209 20.9629C14.0713 21.3211 13.675 21.5416 13.2464 21.5611C13.2257 21.5619 13.2053 21.5625 13.1849 21.5625Z" fill="url(#paint1_linear_108_1373)"/>
</g>
<defs>
<linearGradient id="paint0_linear_108_1373" x1="-9" y1="-3.42475e-06" x2="37.5" y2="30" gradientUnits="userSpaceOnUse">
<stop stop-color="#8F7047"/>
<stop offset="0.509514" stop-color="#DABD9A"/>
<stop offset="1" stop-color="#A58A63"/>
</linearGradient>
<linearGradient id="paint1_linear_108_1373" x1="7.51875" y1="15" x2="22.2188" y2="15" gradientUnits="userSpaceOnUse">
<stop stop-color="#8F7047"/>
<stop offset="0.509514" stop-color="#DABD9A"/>
<stop offset="1" stop-color="#A58A63"/>
</linearGradient>
<clipPath id="clip0_108_1373">
<rect width="13.125" height="13.125" fill="white" transform="translate(8.4375 8.4375)"/>
</clipPath>
</defs>
</svg>
