<svg width="205" height="102" viewBox="0 0 205 102" fill="none" xmlns="http://www.w3.org/2000/svg">
<path fill-rule="evenodd" clip-rule="evenodd" d="M115.919 49.2369L112.23 43.7129L108.235 46.9342L105.289 39.8241L101.321 31.1298L91.3346 27.753L84.2664 22.5358L82.115 21.1549L79.0424 25.2976L73.3588 21.77L77.6597 27.4462L83.7783 28.0613L77.9665 35.1189L79.504 45.0943L86.8793 52.7645C86.8793 52.7645 94.7143 59.6713 96.097 59.6713C97.4797 59.6713 106.277 50.8475 106.277 50.8475L109.619 54.6068L114.382 50.7705L120.487 53.2254L115.919 49.2369ZM115.919 3.04785L120.834 7.03831L122.372 11.7946L128.824 13.9432L137.889 23.3031L145.112 33.738L154.329 33.2785L159.098 41.9616L150.643 36.9607L148.184 41.2579L151.059 49.523L141.578 37.5738L141.681 46.2117L122.986 44.9397L134.664 36.8065L132.358 32.0503L128.517 34.812L124.83 23.303L131.436 28.6749C131.436 28.6749 132.358 26.5263 132.358 25.7585C132.358 24.9907 128.517 19.6213 128.517 19.6213L123.907 15.785C123.907 15.785 121.45 15.6309 120.375 15.4782C119.299 15.3241 117.916 13.1754 117.916 12.4077C117.916 11.6424 118.376 8.11236 118.376 8.11236L115.919 3.04785ZM71.5011 19.4311L64.9606 25.102L60.6519 23.9186L56.583 30.2552L52.5039 33.1995L48.7253 33.6493L45.8298 36.9944L45.7767 43.5438L42.955 46.349L42.2595 43.0848L39.2926 41.2445L35.6022 44.434L29.325 61.4833L20.8153 67.4326L20.333 70.2695C20.333 70.2695 77.9684 66.1249 101.385 65.899C124.8 65.6731 179.926 69.5244 190.79 71.4322C201.652 73.3419 197.289 72.4596 197.289 72.4596L189.901 58.3656L184.709 58.0988L174.864 46.4655C174.864 46.4655 163.928 50.1983 163.811 47.8242C163.692 45.4497 155.006 31.1659 155.006 31.1659L146.779 32.0161L139.686 22.3831L128.905 11.0495L123.515 9.35071C123.515 9.35071 122.379 5.10065 120.678 3.96589C118.975 2.83305 114.152 0 114.152 0L111.315 4.53423H106.21L101.837 13.5463L90.5567 24.8121C90.5567 24.8121 84.481 14.9104 81.2898 14.4624C79.3436 14.1748 77.5086 13.3769 75.9718 12.15L71.5011 19.4311Z" fill="#927B58"/>
<path fill-rule="evenodd" clip-rule="evenodd" d="M96.6395 36.7517C96.6395 36.7517 95.8351 34.6392 93.0529 35.4686C90.2721 36.3004 93.13 39.0414 93.13 39.0414C93.13 39.0414 93.0529 35.4686 96.6395 36.7517ZM75.4948 53.4215C73.0881 54.8516 70.3524 55.6363 67.5527 55.6997C67.5527 55.6997 70.4367 56.6857 72.6387 55.6848C72.6387 55.6848 73.6655 59.8033 73.4962 63.0598L76.659 63.709C76.659 63.709 73.871 58.3637 75.4948 53.4215ZM72.0002 36.5354C72.0002 36.5354 78.754 28.2607 85.7604 27.7116C85.7604 27.7116 87.6307 26.8538 90.4433 29.2072C93.2559 31.561 96.2739 33.7115 99.1584 34.6975C102.042 35.6834 102.611 34.748 103.861 34.5674C105.108 34.3849 105.869 34.8082 105.626 35.7282C105.328 36.5657 104.937 37.3672 104.46 38.1176C105.091 39.2163 105.557 40.4018 105.842 41.6361C105.963 42.4677 105.88 43.3163 105.601 44.1089C105.321 44.9015 104.853 45.6147 104.237 46.1872L106.277 50.8476C105.087 51.5808 103.709 51.9539 102.31 51.9217C100.098 51.8186 98.625 51.2936 97.5496 49.3897C97.5496 49.3897 92.7755 49.6512 90.6564 45.2542C90.6564 45.2542 91.2385 49.13 96.1481 50.0312L99.1526 52.4428C99.1526 52.4428 102.001 61.6846 108.252 65.6506C108.252 65.6506 103.604 65.9742 98.6231 62.6706C98.6231 62.6706 92.2653 63.3233 87.145 55.1506C88.2194 53.4877 89.5744 52.0235 91.1498 50.823C91.1498 50.823 84.1477 53.8429 83.2246 62.8531C83.2246 62.8531 87.431 63.4591 87.8361 65.7166L68.1006 66.5329C68.1006 66.5329 65.9646 59.9257 60.051 56.9848C60.051 56.9848 55.7144 57.6205 52.6003 64.9002C53.4436 64.9001 54.2736 65.1097 55.0156 65.51C55.7575 65.9104 56.388 66.4888 56.8501 67.1933L45.0214 67.6826C45.0214 67.6826 41.9074 50.9757 51.9372 39.9012C61.9651 28.8252 77.0868 30.2138 77.0868 30.2138C77.0868 30.2138 74.1386 31.7661 72.0002 36.5354Z" fill="white"/>
<path fill-rule="evenodd" clip-rule="evenodd" d="M113.016 55.8842C113.114 55.6578 113.298 55.4792 113.527 55.387C113.756 55.2948 114.012 55.2964 114.24 55.3915C115.199 55.6433 114.231 56.6331 114.231 56.6331C114.231 56.6331 114.24 55.3914 113.016 55.8842ZM120.357 61.3967C121.194 61.8628 122.139 62.1003 123.096 62.0854C122.536 62.2962 121.922 62.3174 121.348 62.1456C121.159 62.9895 121.073 63.853 121.09 64.7176L120.007 64.983C120.007 64.983 120.939 63.092 120.357 61.3967ZM121.476 55.4892C121.476 55.4892 119.117 52.7029 116.708 52.6032C116.708 52.6032 116.062 52.3301 115.107 53.1845C114.241 54.0218 113.237 54.7046 112.14 55.2031C111.155 55.5831 110.955 55.2672 110.525 55.22C110.094 55.1728 109.836 55.3293 109.924 55.6453C110.03 55.9315 110.168 56.2048 110.335 56.4597C110.124 56.849 109.969 57.2667 109.877 57.7C109.839 57.9869 109.871 58.2788 109.97 58.5505C110.07 58.8223 110.235 59.0656 110.45 59.2595L109.772 60.9039C110.186 61.1436 110.662 61.2555 111.14 61.2256C111.472 61.2385 111.801 61.1567 112.089 60.9898C112.376 60.8229 112.61 60.5778 112.764 60.283C113.258 60.2736 113.74 60.1257 114.155 59.8564C114.57 59.587 114.901 59.2069 115.111 58.7591C115.013 59.2022 114.782 59.6049 114.449 59.9138C114.116 60.2227 113.697 60.423 113.248 60.4882L112.226 61.3648C112.226 61.3648 111.292 64.6101 109.165 66.0686C110.356 66.025 111.504 65.6199 112.458 64.9073C112.458 64.9073 114.645 65.0523 116.364 62.1475C115.988 61.5858 115.515 61.0952 114.968 60.6987C115.747 61.0756 116.414 61.6501 116.902 62.3648C117.39 63.0795 117.682 63.9095 117.748 64.772C117.748 64.772 116.305 65.0374 116.177 65.8258L122.959 65.8518C122.959 65.8518 123.661 63.5303 125.679 62.4336C125.679 62.4336 127.171 62.5973 128.275 65.0846C127.982 65.0967 127.697 65.1809 127.444 65.3295C127.191 65.4781 126.979 65.6866 126.827 65.9366L130.892 65.9515C130.892 65.9515 131.881 60.1116 128.384 56.3961C124.886 52.6802 119.7 53.3593 119.7 53.3593C120.504 53.8627 121.126 54.6088 121.476 55.4892Z" fill="white"/>
<path fill-rule="evenodd" clip-rule="evenodd" d="M23.9971 70.5498C23.9971 70.5498 24.4113 70.4126 24.6525 70.3018C24.8955 70.1924 24.6718 70.2074 24.9505 70.164L25.2293 70.1231L25.3778 69.9328C25.3778 69.9328 25.6021 69.7522 25.4159 69.6862C25.304 69.648 25.1976 69.5955 25.0991 69.5302C25.0629 69.5147 25.0326 69.4881 25.0127 69.4542C24.9927 69.4203 24.9841 69.381 24.9881 69.3419C25.0069 69.2104 25.0634 69.0524 24.9693 68.9922C24.8767 68.932 24.6718 68.8698 24.8391 68.8265C25.0069 68.7831 25.1748 68.9243 25.2669 68.93C25.359 68.9339 25.4535 68.7345 25.4535 68.7345C25.4535 68.7345 25.8056 68.5144 25.5456 68.4426C25.2857 68.3694 25.2669 68.4108 25.2293 68.3034C25.1936 68.1979 25.1555 68.2037 25.1748 68.0891C25.1936 67.9759 25.2669 67.854 25.1555 67.7409C25.0446 67.6262 24.8955 67.5188 25.0446 67.4774C25.1936 67.4379 25.4535 67.6036 25.4535 67.6036C25.4839 67.5353 25.4946 67.4599 25.4846 67.3858C25.4745 67.3117 25.4441 67.2419 25.3966 67.1841C25.2293 67.0242 25.1555 67.0353 25.1555 66.9245C25.1555 66.8118 25.0634 66.6028 25.1748 66.531C25.2857 66.4578 25.508 66.7044 25.6021 66.7458C25.6947 66.7872 25.6947 66.4708 25.6947 66.4708L25.8982 66.2545C25.8808 66.0176 25.6759 65.9554 25.917 65.9178C26.1581 65.8822 26.3255 65.8576 26.2522 65.756C26.1769 65.6563 26.1957 65.5792 26.1032 65.5942C26.011 65.6077 26.1769 65.5075 26.0467 65.3986C25.9702 65.334 25.9074 65.2547 25.862 65.1655L25.9546 64.8361C26.1769 64.8775 26.1769 65.1183 26.3067 65.0244C26.4369 64.93 26.3443 64.8698 26.5309 64.8794C26.6385 64.884 26.7446 64.9056 26.8454 64.9435C26.8926 64.8654 26.9247 64.7791 26.9399 64.6892C26.9399 64.5953 26.9399 64.5765 26.7909 64.4879C26.6419 64.3997 26.5666 64.5784 26.5854 64.2586C26.6042 63.9407 26.7156 63.9046 26.623 63.8632C26.5309 63.8217 26.4557 63.8709 26.4557 63.7769C26.4557 63.6845 26.7721 63.7861 26.623 63.5491C26.4745 63.3102 26.3631 63.1975 26.5309 63.173C26.6355 63.1586 26.7416 63.161 26.8454 63.1802L27.0508 63.1691C27.0508 63.1691 26.6611 63.1166 27.0132 62.9153C27.1019 62.8642 27.1791 62.8209 27.2447 62.7852C27.441 62.6778 27.5239 62.6383 27.441 62.6648C27.3296 62.7005 27.0508 62.4635 27.0508 62.4635C27.0508 62.4635 27.2543 62.2848 27.1622 62.1682C27.1235 62.1063 27.0978 62.0371 27.0865 61.965C27.0686 61.8724 27.0567 61.7787 27.0508 61.6846L27.4034 61.7053C27.3313 61.5606 27.2872 61.4035 27.2731 61.2425L27.4974 61.2839C27.5592 61.2216 27.6038 61.1445 27.6271 61.0599C27.6464 60.9453 27.7197 60.6178 27.7197 60.6178L27.9609 60.4521C27.9946 60.4832 28.0217 60.5207 28.0408 60.5623C28.0598 60.604 28.0704 60.6491 28.0718 60.6948C28.0718 60.8437 28.0173 60.7045 28.0549 60.902C28.0906 61.1014 28.1663 60.9978 28.2208 61.267C28.2772 61.5377 28.202 61.2328 28.2208 61.5642C28.2396 61.8951 28.1287 62.0796 28.3149 62.0704C28.4996 62.0608 28.5936 61.8802 28.5748 61.9934C28.556 62.108 28.1287 62.358 28.4808 62.2679C28.8347 62.1774 28.8897 61.8349 28.8536 62.174C28.8159 62.5145 28.8897 62.7062 28.7426 62.7476C28.5936 62.7891 28.6298 62.7269 28.5372 62.8155C28.4451 62.9037 28.296 63.0188 28.4808 63.1199C28.6674 63.2235 28.8159 63.3853 28.8897 63.0597C28.965 62.7327 28.8897 62.7626 28.965 62.6402C29.0383 62.5179 29.0759 62.0478 29.1328 62.4297C29.1873 62.8117 29.2061 63.0862 29.2625 62.8189C29.317 62.5502 29.3546 62.0439 29.4115 62.4803C29.466 62.9172 29.1873 62.9413 29.2813 63.1315C29.3739 63.3213 29.7824 63.1672 29.5225 63.3724C29.4059 63.4559 29.2996 63.5531 29.2061 63.6618L29.466 63.698C29.4206 63.9183 29.3524 64.1333 29.2625 64.3395C29.2625 64.4334 29.1516 64.5616 29.3927 64.6179C29.6339 64.6743 29.6527 64.6348 29.6527 64.838C29.6268 65.0191 29.5632 65.1926 29.466 65.3476C29.466 65.3476 29.2437 65.4006 29.3358 65.5528C29.4284 65.7074 29.3546 65.7185 29.577 65.8519C29.6973 65.9497 29.8498 65.9993 30.0047 65.9911C30.1538 65.9877 30.4325 65.835 30.3211 66.1115C30.2102 66.3884 29.9502 66.5199 29.8369 66.4616C29.7824 66.4332 29.7766 66.3037 29.7752 66.2286C29.7732 66.151 29.7732 66.1289 29.726 66.3109C29.6339 66.6779 29.969 66.8321 29.6151 66.8475C29.2625 66.8643 29.2061 66.6688 29.2061 66.8171C29.2061 66.966 28.8897 67.2535 29.2249 67.2593C29.5601 67.2651 29.7636 67.3272 29.969 67.1109C30.1726 66.8942 30.229 67.0902 30.1726 66.8754C30.1161 66.661 30.5622 66.4467 30.6736 66.4299C30.8152 66.4085 30.959 66.4053 31.1014 66.4202C31.3947 66.4117 31.6869 66.3803 31.9753 66.3263C31.9753 66.3263 32.1788 66.2772 31.9753 65.9179C31.7699 65.5605 31.7887 65.5003 31.6777 65.5172C31.5663 65.534 31.2876 65.5586 31.2876 65.4098C31.2876 65.2614 31.25 65.0808 31.1578 65.2258C31.0633 65.3683 30.9167 64.8717 30.9167 64.8717C30.9167 64.8717 30.6548 64.8361 30.6548 64.7061C30.6397 64.5839 30.6341 64.4607 30.638 64.3376C30.6548 64.2056 30.4889 64.0626 30.4889 63.9706C30.4889 63.8786 30.6548 63.7789 30.6548 63.7789C30.6548 63.7789 30.4137 63.5549 30.5811 63.4003C30.7489 63.2442 30.5622 63.013 30.7865 63.2197C31.0088 63.4287 30.99 63.5245 31.139 63.5568C31.2876 63.5905 31.2123 63.8993 31.4178 63.6262C31.4742 63.5657 31.518 63.4947 31.5467 63.4173C31.5754 63.3398 31.5885 63.2574 31.5851 63.1749C31.5851 63.1749 31.5099 63.1127 31.4178 63.0525C31.3252 62.9904 31.4911 62.8175 31.3252 62.8435C31.1578 62.8681 31.2123 63.0824 31.1014 62.8758C30.99 62.6706 30.8034 62.7534 30.9712 62.5613C31.139 62.3696 31.2123 62.3204 31.0276 62.2C30.8415 62.0796 30.8415 62.0608 30.8415 62.0608C30.8623 62.0028 30.8664 61.9402 30.8534 61.88C30.8403 61.8198 30.8106 61.7645 30.7677 61.7203C30.6191 61.519 30.638 61.4419 30.8034 61.4549C30.9712 61.4665 31.0088 61.517 31.0276 61.2728C31.0464 61.0281 30.9712 61.0392 31.1955 61.2858C31.4178 61.5305 31.4723 61.7617 31.6777 61.713C31.8813 61.6639 31.7699 61.978 32.0129 62.0155C32.136 62.0311 32.2602 62.0376 32.3843 62.0348C32.5328 62.0497 32.6987 62.0044 32.5516 61.8238C32.464 61.7158 32.371 61.6123 32.2729 61.5136L32.4952 61.3686C32.4139 61.2715 32.3201 61.1853 32.2164 61.1124C32.1243 61.0715 31.9753 61.0185 32.1243 60.9226C32.2729 60.8268 32.2897 60.7117 32.4031 60.8437C32.514 60.9752 32.3655 60.6462 32.6442 60.8268C32.923 61.0074 32.9042 61.1389 33.072 61.0224C33.2393 60.9039 33.4052 60.8417 33.1641 60.7478C32.923 60.6534 32.8309 60.7608 32.8309 60.5744C32.8309 60.39 33.1077 60.2922 33.0527 60.1891C32.9963 60.0875 32.1788 60.2642 32.8309 59.8895C33.4805 59.5134 33.0908 59.905 33.2938 59.8183C33.4993 59.7335 33.6652 59.4854 33.4993 59.472C33.3319 59.4609 33.275 59.5625 33.1077 59.4946C32.9418 59.4267 32.4219 59.523 32.8477 59.3101C33.275 59.0977 33.275 59.2841 33.4429 59.0732C33.6107 58.8627 33.8518 58.6594 33.6652 58.6874C33.4977 58.7065 33.338 58.7688 33.2017 58.868C33.0151 58.9884 32.8665 59.011 32.7739 58.932C32.6818 58.853 32.5328 58.7456 32.5328 58.7456C32.5328 58.7456 32.6987 58.3675 32.7928 58.4465C32.8176 58.4693 32.8467 58.4868 32.8784 58.4982C32.9101 58.5095 32.9438 58.5144 32.9775 58.5125L33.0151 58.2471L32.8116 58.0366L32.7402 57.8411L32.663 57.632C32.8665 57.5265 33.1829 57.8126 33.1829 57.8126C33.2874 57.8263 33.3891 57.8562 33.4843 57.9013C33.5523 57.9538 33.6483 57.7751 33.7009 57.726C33.7539 57.6792 33.861 57.4741 33.9362 57.634C33.9736 57.7361 34.0306 57.83 34.104 57.9104C34.2422 57.98 34.3859 58.0378 34.5338 58.0833C34.5598 58.1007 34.5805 58.2245 34.6355 58.1098C34.6919 57.9933 34.5526 57.9369 34.4547 57.8613C34.3568 57.7881 34.1137 57.6191 34.3471 57.6224C34.5825 57.6263 34.8521 57.7467 34.9027 57.6903C34.9557 57.634 35.0368 57.3517 34.9408 57.3122C34.8463 57.2727 34.4412 57.3387 34.7392 57.1355C35.0368 56.9322 35.0647 57.0584 35.1024 56.9226C35.1385 56.7872 35.3816 56.7516 35.1477 56.6649C34.9162 56.5782 34.9162 56.6442 34.8217 56.5652C34.7296 56.4862 34.7011 56.4072 34.6466 56.3677C34.5902 56.3301 34.4035 56.3769 34.3394 56.3677C34.2738 56.3581 34.0042 56.3528 34.2642 56.138C34.5241 55.9217 34.6186 55.9159 34.5617 55.9159C34.5053 55.9145 34.46 55.6149 34.3018 55.5927C34.1604 55.5973 34.0201 55.5668 33.8933 55.5041C33.7708 55.4213 33.5297 55.3462 33.7158 55.2614C33.9005 55.1785 34.2265 55.1559 34.1909 55.0884C34.134 55.0169 34.0603 54.9606 33.9762 54.9247C33.929 54.904 33.7612 54.8548 33.957 54.7421C34.1532 54.6294 34.2738 54.6839 34.2077 54.5278C34.1436 54.3693 33.929 54.3 33.8557 54.2268C33.78 54.1531 33.603 53.9763 33.7612 53.8863C33.9226 53.8133 34.0912 53.7571 34.2642 53.7186L34.3944 53.4571C34.3944 53.4571 34.5993 53.6209 34.6543 53.6604C34.7107 53.6979 34.786 53.6488 34.8501 53.7057C34.9162 53.7601 34.8048 53.9537 35.0932 53.8087C35.3816 53.6623 35.1761 53.6565 35.1761 53.5342C35.1761 53.4138 35.0556 53.303 35.1949 53.2351C35.265 53.1935 35.3449 53.1714 35.4264 53.171C35.5489 53.1542 35.6319 53.0395 35.7168 53.0641C35.7997 53.0882 35.8653 53.2462 35.9203 53.0506C35.9572 52.9498 35.9856 52.846 36.0052 52.7404C36.0052 52.6952 36.0409 52.633 35.8277 52.6273C35.7016 52.6403 35.5746 52.6141 35.4641 52.5521C35.3531 52.4938 35.3343 52.3773 35.2779 52.3113C35.2229 52.2434 35.0835 52.1721 35.1289 52.1008C35.1761 52.0271 35.0835 51.8841 35.3247 51.9409C35.5658 51.9973 35.6695 51.9631 35.7621 52.0801C35.8561 52.1967 36.0312 52.3378 36.1064 52.2511C36.1712 52.18 36.2161 52.0931 36.2367 51.9992C36.2555 51.9125 36.3572 51.8407 36.1634 51.8427C35.9671 51.8446 35.8561 51.8807 35.8277 51.809C35.8068 51.7094 35.8004 51.6074 35.8089 51.506C35.8089 51.4121 35.8827 51.3817 35.7245 51.3215C35.6635 51.3011 35.6094 51.264 35.5684 51.2145C35.5274 51.1649 35.5011 51.1049 35.4925 51.0412C35.5438 50.927 35.6064 50.8181 35.6791 50.7161C35.7071 50.665 35.6415 50.4974 35.7901 50.5596C35.9391 50.6198 36.1064 50.5485 36.1894 50.6198C36.2743 50.6915 36.2555 50.9174 36.3288 50.7479C36.4045 50.5783 36.6287 50.4242 36.3948 50.3471C36.1634 50.2701 36.05 50.2325 36.0597 50.1834C36.1074 50.0954 36.1635 50.0122 36.227 49.9348C36.227 49.9348 36.3572 49.8409 36.2743 49.7243C36.1894 49.6058 36.1257 49.457 36.2082 49.4628C36.2922 49.4816 36.3738 49.51 36.4513 49.5476C36.5062 49.5683 36.6644 49.3949 36.6003 49.3217C36.5342 49.2465 36.4609 49.0544 36.5251 49.0809C36.5906 49.1093 36.7585 49.2783 36.8038 49.235C36.8874 49.1093 36.9443 48.9678 36.9712 48.8194C36.9712 48.7254 36.8979 48.6633 36.9263 48.5655C36.9737 48.4521 37.0323 48.3437 37.1014 48.2419C37.1014 48.2419 37.3348 48.3002 37.3444 48.4562C37.3536 48.6122 37.2142 48.6142 37.3444 48.7818C37.4742 48.9475 37.6044 48.9191 37.6044 48.9191C37.6044 48.9191 37.7249 48.9475 37.6796 49.0939C37.6328 49.2408 37.3724 49.2427 37.5759 49.2673C37.6937 49.2834 37.8132 49.2815 37.9304 49.2615C37.9304 49.2615 38.0977 48.9191 38.0977 49.2162C38.0977 49.5153 38.0225 49.5457 38.0977 49.6078C38.1715 49.6719 38.3485 49.5418 38.228 49.7186C38.1074 49.8954 38.1074 49.9334 37.9304 49.9594C37.7534 49.9859 37.5856 49.9633 37.5759 50.0591C37.5668 50.1535 37.5947 50.2604 37.5668 50.3115C37.5402 50.3621 37.5123 50.3563 37.5311 50.456C37.548 50.5562 37.8002 50.5278 37.8002 50.5278C37.8152 50.568 37.8188 50.6116 37.8105 50.6538C37.8022 50.696 37.7825 50.735 37.7534 50.7667C37.6516 50.8851 37.6608 50.8172 37.5668 50.9343C37.4742 51.0508 37.4086 51.0224 37.5026 51.0923C37.5947 51.1616 37.6796 51.0845 37.725 51.2353C37.7722 51.3875 37.642 51.6587 37.8098 51.4289C37.9772 51.1977 38.0133 51.0619 38.0601 51.0566C38.1436 51.036 38.2206 50.9952 38.2844 50.9376C38.3297 50.8851 38.3109 50.4507 38.4691 50.6593C38.6273 50.8683 38.7122 50.9757 38.5728 51.1279C38.4334 51.2787 38.3297 51.3215 38.2371 51.4193C38.145 51.5176 37.9304 51.5118 38.0698 51.6491C38.2092 51.7863 38.2092 51.8711 38.405 51.7016C38.6008 51.5325 38.5631 51.4458 38.6934 51.3894C38.8231 51.3312 38.8419 51.282 38.9909 51.2594C39.1399 51.2372 39.3449 51.0302 39.3449 51.1881C39.3449 51.3461 39.6786 51.4814 39.2224 51.5985C38.7667 51.7131 38.7025 51.6019 38.7213 51.7189C38.7401 51.8374 38.9437 51.8354 39.0382 51.9236C39.1303 52.0122 39.2605 52.0011 39.1491 52.1384C39.0627 52.2306 38.9536 52.2987 38.8327 52.3359C38.8327 52.3359 38.7855 52.2304 38.7855 52.3417C38.7855 52.4544 38.8892 52.411 38.8988 52.5392C38.908 52.6687 38.7589 52.8662 38.6273 52.7838C38.4976 52.701 38.5631 52.5522 38.4595 52.6615C38.3577 52.7684 38.2164 52.7347 38.2014 52.857C38.1884 52.9813 38.1508 53.1258 38.2202 53.2034C38.2902 53.2823 38.3466 53.2539 38.3278 53.3556C38.309 53.4553 38.1976 53.5511 38.3693 53.6003C38.4895 53.6398 38.6155 53.6588 38.7421 53.6566C38.849 53.6568 38.952 53.6165 39.0305 53.5439C39.0623 53.5381 39.2812 53.5795 39.2716 53.5025C39.262 53.4235 39.3131 53.3931 39.221 53.3329C39.1284 53.2727 39.0589 53.254 39.1284 53.1562C39.1807 53.0767 39.2273 52.9937 39.2677 52.9077C39.3003 52.8996 39.3344 52.9001 39.3668 52.9091C39.3991 52.918 39.4286 52.9351 39.4524 52.9587C39.4845 52.9856 39.5218 53.0056 39.562 53.0172C39.6022 53.0288 39.6444 53.0319 39.6859 53.0261C39.7558 53.0281 39.901 52.9659 39.8537 52.8889C39.8064 52.8118 39.7273 52.7497 39.7462 52.6856C39.765 52.6235 39.7519 52.4809 39.8855 52.5353C40.0215 52.5898 40.0442 52.6596 40.1045 52.5353C40.1756 52.4264 40.2654 52.3309 40.3697 52.2531C40.3697 52.2531 40.4961 52.2569 40.3885 52.4091C40.2815 52.5599 40.2342 52.6408 40.2439 52.6634C40.253 52.6837 40.4961 52.635 40.4961 52.6577C40.4961 52.6803 40.4715 52.8421 40.3606 52.8835C40.2492 52.923 40.2212 52.8888 40.2154 52.9606C40.2115 53.03 40.2024 53.0603 40.3697 53.16C40.5376 53.2616 40.6678 53.2313 40.7088 53.3613C40.7502 53.489 40.7088 53.5135 40.6866 53.5834C40.662 53.6508 40.6712 53.6961 40.7748 53.7731C40.8766 53.8521 40.9518 53.8449 40.839 53.9123C40.7281 53.9803 40.6996 53.948 40.6075 53.9576C40.5634 53.9623 40.5214 53.9783 40.4854 54.004C40.4494 54.0297 40.4206 54.0644 40.402 54.1045C40.3606 54.1854 40.2304 54.2736 40.3418 54.3453C40.4527 54.4166 40.6355 54.3492 40.5091 54.4658C40.4255 54.5418 40.3247 54.5967 40.2154 54.6257C40.1701 54.6425 39.9646 54.6069 40.1286 54.7364C40.2906 54.8646 40.4903 55.0452 40.5602 54.8814C40.5974 54.7636 40.6541 54.6529 40.7281 54.5539C40.8486 54.3771 40.8824 54.2832 40.9557 54.3001C41.0309 54.3169 41.165 54.3058 41.1611 54.3771C41.1554 54.447 40.9142 54.6878 40.8727 54.7552C40.8293 54.8212 40.5356 55.1035 40.6089 55.1844C40.6847 55.2672 40.8332 55.2538 40.7864 55.3255C40.7392 55.3987 40.5901 55.4194 40.4884 55.4272C40.3866 55.4329 40.349 55.3727 40.266 55.4329C40.1816 55.4912 40.0326 55.5134 40.1532 55.6622C40.2757 55.813 40.3302 55.7846 40.2757 55.8953C40.2193 56.0066 39.995 56.1795 40.266 56.0461C40.5356 55.9127 40.4884 55.8072 40.5544 55.7976C40.6186 55.7884 40.5901 55.7186 40.7956 55.8824C41.001 56.048 41.4003 55.8299 41.1877 56.0293C40.9726 56.2287 40.7956 56.0312 40.8332 56.2682C40.8708 56.5032 41.1216 56.5971 40.9726 56.6747C40.824 56.7536 40.7314 56.7291 40.6658 56.8138C40.5998 56.8981 40.5453 56.9246 40.6186 56.9983C40.6938 57.0696 40.7483 57.0619 40.7483 57.1447C40.7483 57.2295 40.5732 57.2464 40.5998 57.3162C40.6277 57.3875 40.5901 57.4197 40.824 57.478C40.9261 57.5108 41.0342 57.5203 41.1404 57.506C41.1877 57.5079 41.2706 57.4853 41.1404 57.7564C41.0102 58.0271 40.8052 57.9183 41.0198 58.0724C41.2325 58.2265 41.3627 58.2342 41.2234 58.3397C41.1288 58.4062 41.0208 58.4511 40.907 58.4712L41.0198 58.6407C41.0198 58.6407 41.261 58.6783 41.15 58.7684C41.0367 58.8608 40.9822 58.9249 40.9161 58.8965C40.852 58.87 40.7864 58.9076 40.758 58.8382C40.7314 58.7664 40.7035 58.7611 40.7035 58.7611C40.7035 58.7611 40.675 58.6725 40.6277 58.6518C40.5829 58.6311 40.4319 58.4018 40.4416 58.541C40.4383 58.7152 40.4737 58.8879 40.5453 59.0467C40.6154 59.1369 40.669 59.2389 40.7035 59.3478C40.7126 59.3931 40.758 59.5154 40.8332 59.4215C40.907 59.3271 40.8973 59.2726 41.0198 59.2067C41.1404 59.1431 41.2798 59.0092 41.2798 59.1036C41.2798 59.1956 41.3362 59.2447 41.2137 59.3179C41.0931 59.3911 40.9161 59.3444 41.0367 59.4836C41.1592 59.6247 41.1404 59.5795 41.2422 59.7037C41.3439 59.828 41.2986 59.8073 41.3815 59.9258C41.4664 60.0423 41.3439 60.1362 41.5118 60.0366C41.6791 59.9369 41.5961 59.8747 41.7924 59.8352C41.9863 59.7977 42.0239 59.7355 42.0712 59.7659C42.116 59.7957 42.3591 59.7317 42.2294 59.854C42.0992 59.9764 42.0615 59.9446 42.0615 59.9913C42.0615 60.0366 42.2385 60.2528 42.3027 60.2249C42.3687 60.1965 42.5814 60.0987 42.5814 60.0987C42.5814 60.0987 42.6002 59.9465 42.6663 60.0028C42.7305 60.0573 42.7777 59.986 42.8602 60.0929C42.9451 60.2023 43.0189 60.1907 42.9735 60.2904C42.9263 60.3901 42.7965 60.4561 42.7493 60.4262C42.7039 60.3959 42.6475 60.4147 42.6287 60.5014C42.6099 60.5881 42.676 60.6237 42.5814 60.6483C42.4893 60.6709 42.4797 60.5144 42.4329 60.5486C42.3876 60.5842 42.3403 60.5635 42.3311 60.695C42.3215 60.827 42.4044 60.7668 42.3215 60.8718C42.2385 60.9772 42.2385 60.9772 42.1257 60.9493C42.0614 60.9327 42.0012 60.9032 41.9487 60.8626C41.9487 60.8626 41.8093 60.8665 41.7828 60.9339C41.7543 61.0037 41.7076 61.0018 41.6887 61.0885C41.6699 61.1747 41.6603 61.1675 41.6434 61.2634C41.6246 61.3592 41.6887 61.3125 41.5209 61.4666C41.3531 61.6227 41.2894 61.6887 41.3174 61.7676C41.3439 61.8466 41.5021 61.8596 41.4288 61.9555C41.3531 62.0499 41.3082 62.1588 41.2137 62.0441C41.1216 61.9276 41.1404 61.9801 41.1028 61.8467C41.0652 61.7133 40.9914 61.7508 41.0102 61.6376C41.0295 61.523 41.1877 61.3968 41.0652 61.3968C40.9446 61.3949 40.8882 61.3197 40.8882 61.4136C40.9 61.487 40.9031 61.5616 40.8973 61.6357C40.8805 61.6944 40.675 61.7147 40.6658 61.6511C40.6562 61.587 40.6938 61.4045 40.5829 61.4965C40.5329 61.5262 40.4923 61.5693 40.4656 61.6209C40.4389 61.6725 40.4273 61.7305 40.4319 61.7884C40.4508 61.8972 40.498 61.9936 40.498 62.048C40.498 62.1043 40.5544 62.1328 40.4508 62.1496C40.3861 62.1582 40.3204 62.1549 40.2569 62.14C40.2416 62.1763 40.2352 62.2158 40.2381 62.2551C40.271 62.3923 40.3177 62.5259 40.3774 62.6539C40.4306 62.6334 40.4878 62.6258 40.5445 62.6317C40.6012 62.6375 40.6556 62.6567 40.7035 62.6876C40.852 62.795 40.8708 62.9982 40.9634 62.8624C41.0555 62.7271 41.0464 62.5426 41.178 62.5426C41.3082 62.5407 41.3362 62.4805 41.4476 62.586C41.5585 62.6895 41.5682 62.8191 41.6434 62.7232C41.7167 62.6293 41.4944 62.6255 41.8093 62.4183C42.1257 62.2136 42.2651 62.2021 42.2747 62.1361C42.2839 62.0686 42.1257 61.9988 42.3311 61.9405C42.4543 61.8996 42.5821 61.8743 42.7116 61.8654C42.8245 61.8577 42.8153 61.6925 42.9827 61.6376C43.1505 61.5851 43.2426 61.442 43.2426 61.5533C43.2426 61.6641 43.0656 61.8221 43.0844 61.9386C43.1033 62.0571 43.4577 62.0518 43.5214 61.9858C43.5875 61.9198 43.708 61.7431 43.68 61.9068C43.6633 62.0589 43.59 62.1992 43.4746 62.2999C43.354 62.4015 43.2335 62.4279 43.2238 62.4863C43.2147 62.5426 43.4389 62.5561 43.5407 62.5503C43.6419 62.5445 43.7456 62.52 43.5875 62.7006C43.4293 62.8831 43.3352 62.8793 43.2614 62.9925C43.1862 63.1051 43.2238 63.1938 43.177 63.3479C43.1524 63.426 43.1091 63.4969 43.051 63.5546C42.9929 63.6123 42.9216 63.6551 42.8433 63.6793C42.6866 63.713 42.5377 63.7761 42.4044 63.8652C42.2651 63.9596 42.2482 64.1682 41.9767 63.9668C41.7076 63.7655 41.6511 64.1267 41.6511 64.2096C41.6511 64.2943 41.9487 64.1571 41.8373 64.4051C41.7264 64.6556 41.4003 64.7235 41.6699 64.8116C41.941 64.9022 42.2294 65.0731 42.2839 64.8607C42.3403 64.6459 42.3499 64.3656 42.5723 64.2587C42.7965 64.1493 42.676 64.001 42.9923 64.1214C43.3087 64.2418 43.5875 64.1628 43.5595 64.2587C43.531 64.3565 43.3444 64.5144 43.3352 64.5636C43.3256 64.6103 43.3916 64.5351 43.4008 64.6368C43.4105 64.7365 43.2147 64.842 43.1409 64.9171C43.0656 64.9942 43.0092 64.9378 42.9923 65.0789C42.9735 65.222 43.0468 65.2933 43.0656 65.3838C43.0844 65.4739 43.1597 65.5379 43.0468 65.5269C42.9359 65.5153 42.9263 65.3496 42.8698 65.3857C42.8153 65.4214 42.6099 65.536 42.6099 65.536C42.6099 65.536 42.4797 65.6583 42.5911 65.7711C42.7039 65.8862 42.7869 65.9483 42.6663 65.9652C42.5457 65.9839 42.4044 65.8279 42.4044 65.8279C42.3423 65.8585 42.2836 65.8956 42.2294 65.9387C42.2088 65.9542 42.1918 65.974 42.1795 65.9966C42.1673 66.0193 42.16 66.0443 42.1582 66.07C42.1564 66.0957 42.1602 66.1215 42.1692 66.1456C42.1782 66.1697 42.1923 66.1916 42.2106 66.2098C42.3027 66.3168 42.4421 66.3245 42.3403 66.4145C42.2385 66.5032 42.2197 66.5821 42.1541 66.6197C42.09 66.6573 42.2106 66.5725 41.913 66.6086C41.615 66.6443 41.41 66.5913 41.3815 66.7156C41.3531 66.8418 41.1819 66.9338 41.3362 66.9097C41.423 66.8962 42.376 67.0994 42.4102 67.44C42.4348 67.7054 41.5339 68.108 41.6323 68.2169C42.2424 68.8984 42.9152 67.9385 43.3237 67.8763C43.9193 67.7882 44.9364 68.4505 45.5315 68.2323C46.1271 68.0122 46.2211 67.886 46.5549 67.9481C46.7737 68.0252 47.003 68.0689 47.2349 68.0777C71.6817 67.9875 37.6835 68.5462 23.9971 70.5498Z" fill="white"/>
<path fill-rule="evenodd" clip-rule="evenodd" d="M136.396 66.5445C136.647 66.5218 137.097 66.4804 137.395 66.4221C137.83 66.3393 137.419 66.2699 137.93 66.3186L138.44 66.3677L138.695 66.1115C138.695 66.1115 139.087 65.901 138.736 65.7127C138.525 65.5986 138.324 65.4657 138.137 65.3158C138.137 65.3158 137.892 65.167 137.911 64.9526C137.932 64.7383 138.018 64.4975 137.841 64.3564C137.662 64.2152 137.28 64.025 137.583 64.0216C137.886 64.0197 138.21 64.3299 138.382 64.3771C138.553 64.4238 138.704 64.1285 138.704 64.1285C138.704 64.1285 139.333 63.9104 138.845 63.6772C138.357 63.4455 138.328 63.5039 138.248 63.3102C138.169 63.1166 138.101 63.1108 138.122 62.9263C138.145 62.7418 138.269 62.5689 138.052 62.33C137.834 62.0931 137.547 61.8484 137.819 61.8426C138.1 61.9111 138.362 62.0423 138.586 62.2265C138.635 62.1043 138.647 61.9704 138.621 61.8413C138.595 61.7122 138.531 61.5936 138.438 61.5002C138.112 61.1577 137.977 61.1447 137.966 60.9583C137.954 60.7705 137.76 60.3808 137.958 60.3076C138.156 60.232 138.593 60.7382 138.77 60.8495C138.945 60.9583 138.911 60.428 138.911 60.428L139.266 60.1511C139.207 59.7431 138.823 59.5509 139.266 59.5943C139.706 59.6357 140.014 59.6661 139.865 59.4647C139.717 59.2653 139.744 59.143 139.574 59.1276C139.405 59.1107 139.702 59.0149 139.45 58.774C139.305 58.6372 139.181 58.4792 139.083 58.3054L139.22 57.792C139.636 57.9557 139.661 58.3603 139.891 58.2587C140.121 58.157 139.944 58.0159 140.286 58.1098C140.493 58.1656 140.691 58.2472 140.876 58.3526C140.956 58.2365 141.005 58.1027 141.021 57.9629C141.012 57.8069 141.01 57.7751 140.725 57.5622C140.443 57.3498 140.324 57.6171 140.324 57.0902C140.326 56.5633 140.528 56.5522 140.353 56.4409C140.176 56.3321 140.043 56.3807 140.034 56.2266C140.025 56.0705 140.618 56.3754 140.318 55.9126C140.019 55.4497 139.802 55.2108 140.108 55.2407C140.308 55.263 140.505 55.3131 140.692 55.3895L141.066 55.455C141.066 55.455 140.341 55.2012 140.972 55.0128C141.129 54.9661 141.268 54.9266 141.385 54.8944C141.735 54.7985 141.886 54.7667 141.733 54.7759C141.532 54.7874 140.993 54.2697 140.993 54.2697C140.993 54.2697 141.351 54.0573 141.166 53.8222C141.091 53.7071 141.037 53.5798 141.006 53.446C140.963 53.2866 140.931 53.1244 140.91 52.9605L141.564 53.1465C141.419 52.8877 141.322 52.6057 141.276 52.3132L141.692 52.477C141.8 52.4005 141.877 52.2865 141.906 52.1572C141.929 51.9727 142.033 51.4554 142.033 51.4554L142.461 51.2786C142.586 51.4016 142.667 51.5621 142.692 51.7357C142.708 51.9838 142.59 51.7261 142.679 52.0743C142.769 52.424 142.896 52.2814 143.026 52.7592C143.157 53.237 142.988 52.6932 143.058 53.2577C143.128 53.8222 142.941 54.0837 143.282 54.1478C143.625 54.2114 143.775 53.9465 143.755 54.1305C143.732 54.3149 142.969 54.5519 143.612 54.5519C144.254 54.55 144.32 53.999 144.288 54.5538C144.254 55.1092 144.412 55.4646 144.143 55.4704C143.872 55.4757 143.934 55.3875 143.772 55.4964C143.61 55.6058 143.348 55.7353 143.702 55.9857C144.054 56.2357 144.346 56.5748 144.45 56.057C144.552 55.5397 144.418 55.5585 144.542 55.3837C144.666 55.2108 144.685 54.4372 144.829 55.1014C144.972 55.7656 145.034 56.2376 145.109 55.8109C145.184 55.3837 145.2 54.5485 145.348 55.3066C145.497 56.0647 144.985 55.9838 145.177 56.3431C145.367 56.7024 146.106 56.6177 145.648 56.8532C145.446 56.939 145.26 57.0571 145.096 57.2029L145.578 57.3743C145.521 57.7178 145.417 58.0519 145.269 58.3675C145.279 58.5235 145.087 58.6912 145.539 58.8886C145.991 59.0861 146.021 59.0278 146.042 59.3703C146.018 59.6512 145.919 59.9205 145.754 60.1491C145.754 60.1491 145.346 60.1419 145.535 60.4391C145.722 60.7362 145.586 60.7232 146.012 61.043C146.235 61.2544 146.513 61.3991 146.814 61.4606C147.089 61.517 147.587 61.3778 147.41 61.7954C147.381 61.8782 147.336 61.9544 147.277 62.0192C147.218 62.0839 147.146 62.1359 147.066 62.1718C146.986 62.2078 146.9 62.227 146.812 62.2283C146.724 62.2296 146.637 62.2129 146.556 62.1793C146.45 62.108 146.428 61.8879 146.415 61.7598C146.404 61.6302 146.4 61.5907 146.334 61.8802C146.202 62.4562 146.835 62.857 146.185 62.7327C145.535 62.6104 145.413 62.2563 145.428 62.5068C145.442 62.7553 144.891 63.105 145.509 63.2577C146.126 63.4099 146.509 63.6016 146.863 63.3251C147.217 63.0487 147.342 63.4002 147.215 63.0169C147.091 62.633 147.892 62.4615 148.095 62.4803C148.363 62.5087 148.627 62.5656 148.883 62.6499C149.411 62.7588 149.946 62.8304 150.484 62.8642C150.484 62.8642 150.855 62.868 150.441 62.1773C150.026 61.4871 150.054 61.3966 149.851 61.3778C149.645 61.3571 149.135 61.2781 149.118 61.0281C149.103 60.7796 149.017 60.4598 148.86 60.6631C148.704 60.8644 148.376 59.9651 148.376 59.9651C148.376 59.9651 147.893 59.7956 147.878 59.5774C147.838 59.3707 147.814 59.1612 147.807 58.9508C147.826 58.7345 147.504 58.4258 147.492 58.2697C147.483 58.1137 147.781 58.0178 147.781 58.0178C147.781 58.0178 147.311 57.5401 147.604 57.3498C147.897 57.1595 147.53 56.6914 147.963 57.1355C148.396 57.5795 148.372 57.7337 148.649 57.8522C148.928 57.9726 148.822 58.4581 149.171 58.0872C149.268 58.0035 149.343 57.8969 149.389 57.7769C149.435 57.657 149.45 57.5276 149.433 57.4004C149.433 57.4004 149.288 57.2612 149.111 57.1201C148.934 56.9809 149.223 56.7588 148.917 56.7309C148.611 56.7005 148.736 57.0863 148.51 56.6914C148.282 56.2979 147.948 56.36 148.236 56.1081C148.525 55.8557 148.656 55.8071 148.3 55.5248C147.944 55.2426 147.943 55.2122 147.943 55.2122C147.943 55.2122 148.065 55.0056 147.771 54.6068C147.475 54.2061 147.502 54.0837 147.811 54.1757C148.122 54.2682 148.195 54.3679 148.203 53.9653C148.212 53.5626 148.076 53.551 148.514 54.0573C148.951 54.5635 149.077 54.9792 149.45 54.983C149.821 54.9869 149.649 55.4666 150.098 55.6337C150.323 55.7119 150.552 55.7755 150.786 55.824C151.062 55.9126 151.366 55.9107 151.072 55.5398C150.778 55.1713 150.525 54.9002 150.525 54.9002L150.921 54.7513C150.759 54.5519 150.578 54.3686 150.38 54.2042C150.205 54.0929 149.924 53.9426 150.188 53.8449C150.454 53.7452 150.474 53.5626 150.695 53.8314C150.913 54.0987 150.605 53.4817 151.138 53.9032C151.672 54.3265 151.652 54.5428 151.948 54.4147C152.243 54.289 152.545 54.2548 152.091 53.9951C151.635 53.7336 151.475 53.8747 151.454 53.5626C151.435 53.25 151.94 53.2052 151.825 53.0073C151.712 52.8117 150.222 52.7631 151.383 52.4072C152.543 52.0537 151.865 52.5464 152.232 52.4881C152.599 52.4317 152.882 52.0854 152.573 51.9934C152.262 51.9029 152.172 52.0498 151.855 51.8634C151.539 51.6794 150.589 51.6192 151.356 51.4439C152.123 51.269 152.142 51.5811 152.428 51.2989C152.715 51.0152 153.138 50.7763 152.799 50.744C152.515 50.7017 152.225 50.7389 151.961 50.8514C151.837 50.9163 151.698 50.9438 151.559 50.9304C151.42 50.9171 151.288 50.8635 151.179 50.7763C151 50.6048 150.714 50.3602 150.714 50.3602C150.714 50.3602 150.983 49.7957 151.162 49.9691C151.257 50.0665 151.379 50.1321 151.512 50.1569L151.552 49.7263L151.153 49.2861L151 48.9287L150.836 48.5429C151.202 48.4523 151.816 49.0698 151.816 49.0698C152.014 49.1393 152.204 49.2321 152.381 49.3463C152.511 49.4628 152.669 49.2032 152.763 49.145C152.856 49.0886 153.033 48.7909 153.185 49.0886C153.27 49.2843 153.384 49.4658 153.524 49.6266C153.785 49.8009 154.056 49.9585 154.337 50.0986C154.385 50.14 154.436 50.3582 154.528 50.1872C154.619 50.0177 154.355 49.8597 154.167 49.694C153.979 49.5288 153.511 49.1392 153.944 49.2466C154.378 49.3535 154.888 49.6699 154.977 49.5963C155.066 49.525 155.186 49.0848 155.005 48.9774C154.826 48.8719 154.086 48.8102 154.615 48.5954C155.143 48.3811 155.207 48.605 155.262 48.3922C155.316 48.1798 155.759 48.2231 155.32 47.9784C154.883 47.7357 154.888 47.845 154.709 47.6716C154.528 47.4987 154.47 47.3537 154.363 47.2651C154.256 47.1789 153.916 47.177 153.796 47.1336C153.675 47.0922 153.176 46.966 153.634 46.7141C154.092 46.4636 154.263 46.494 154.16 46.4694C154.058 46.4449 153.939 45.9203 153.645 45.8149C153.372 45.7567 153.112 45.6475 152.88 45.4931C152.649 45.299 152.194 45.0697 152.53 45.0095C152.863 44.9474 153.462 45.051 153.387 44.919C153.272 44.774 153.133 44.6505 152.975 44.5544C152.886 44.4995 152.573 44.3434 152.922 44.2379C153.27 44.131 153.498 44.2774 153.362 43.9841C153.225 43.6927 152.824 43.4818 152.678 43.3296C152.534 43.1749 152.189 42.8007 152.47 42.7179C152.77 42.6638 153.075 42.641 153.379 42.6499L153.592 42.2665C153.592 42.2665 153.988 42.6292 154.093 42.7178C154.201 42.8065 154.333 42.7554 154.459 42.8758C154.585 42.9981 154.401 43.2746 154.917 43.1523C155.433 43.0318 155.054 42.9341 155.043 42.7308C155.03 42.528 154.794 42.2872 155.045 42.2323C155.183 42.1941 155.328 42.1922 155.467 42.227C155.689 42.2477 155.83 42.0893 155.989 42.1668C156.145 42.2439 156.283 42.5372 156.364 42.2342C156.421 42.0772 156.463 41.9144 156.486 41.7487C156.482 41.6697 156.544 41.5835 156.149 41.4838C155.904 41.4437 155.671 41.3471 155.47 41.2016C155.26 41.0566 155.212 40.8495 155.101 40.7161C154.992 40.5807 154.726 40.4001 154.805 40.2985C154.883 40.1968 154.696 39.9146 155.148 40.114C155.601 40.3115 155.787 40.2985 155.97 40.5335C156.154 40.7686 156.495 41.0812 156.623 40.968C156.737 40.8759 156.813 40.7455 156.836 40.6014C156.863 40.4637 157.044 40.3866 156.684 40.3057C156.324 40.2248 156.12 40.2383 156.062 40.1082C156.015 39.9393 155.992 39.7644 155.996 39.589C155.985 39.431 156.12 39.4142 155.821 39.2446C155.708 39.1883 155.608 39.1079 155.529 39.0092C155.45 38.9104 155.393 38.7957 155.363 38.673C155.372 38.5655 155.625 38.2775 155.672 38.2062C155.717 38.133 155.58 37.8243 155.862 37.99C156.143 38.1571 156.445 38.1085 156.607 38.2626C156.769 38.4186 156.757 38.7914 156.878 38.5371C156.996 38.2852 157.392 38.1195 156.955 37.8922C156.518 37.6644 156.307 37.5517 156.32 37.4741C156.332 37.3971 156.603 37.1283 156.603 37.1283C156.634 37.1152 156.661 37.0946 156.683 37.0684C156.704 37.0421 156.718 37.011 156.725 36.9779C156.731 36.9447 156.729 36.9105 156.719 36.8782C156.709 36.846 156.691 36.8167 156.667 36.7931C156.499 36.558 156.364 36.2816 156.518 36.3283C156.678 36.3948 156.83 36.4767 156.974 36.573C157.079 36.6293 157.353 36.4078 157.224 36.2551C157.096 36.1029 156.938 35.7455 157.062 35.8206C157.185 35.8938 157.513 36.2512 157.594 36.1968C157.738 36.0155 157.829 35.798 157.858 35.5683C157.848 35.4122 157.705 35.2749 157.746 35.1242C157.823 34.9557 157.921 34.7977 158.038 34.6541C158.038 34.6541 158.473 34.8516 158.507 35.1189C158.54 35.3857 158.283 35.3294 158.541 35.6661C158.595 35.7546 158.667 35.8308 158.753 35.8898C158.838 35.9488 158.935 35.9893 159.037 36.0085C159.098 36.0343 159.148 36.0818 159.176 36.1418C159.205 36.2019 159.21 36.2704 159.191 36.3341C159.122 36.56 158.641 36.4526 159.022 36.5807C159.232 36.6557 159.451 36.7032 159.673 36.7218C159.673 36.7218 159.947 36.2195 159.977 36.7199C160.009 37.2203 159.875 37.2372 160.018 37.3764C160.161 37.5137 160.474 37.3725 160.271 37.6172C160.065 37.8619 160.069 37.924 159.747 37.8937C159.423 37.8638 159.112 37.7564 159.105 37.911C159.097 38.0651 159.159 38.2568 159.114 38.3305C159.067 38.4037 159.016 38.385 159.061 38.5598C159.105 38.7351 159.566 38.7934 159.566 38.7934C159.598 38.8556 159.609 38.9262 159.598 38.9951C159.587 39.0639 159.555 39.1277 159.506 39.1773C159.329 39.3314 159.338 39.2221 159.18 39.3781C159.02 39.5346 158.897 39.461 159.076 39.6175C159.255 39.7755 159.402 39.6791 159.504 39.9542C159.606 40.2268 159.393 40.6275 159.677 40.3116C159.962 39.9975 160.016 39.7847 160.101 39.7924C160.242 39.7967 160.381 39.7615 160.502 39.6907C160.581 39.6209 160.502 38.8835 160.815 39.3011C161.13 39.7206 161.296 39.9373 161.055 40.1329C160.812 40.3265 160.629 40.3569 160.467 40.4811C160.305 40.6049 159.909 40.5052 160.182 40.7952C160.453 41.0846 160.463 41.2257 160.806 41.0263C161.149 40.825 161.07 40.6617 161.305 40.6222C161.538 40.5822 161.567 40.5071 161.84 40.5336C162.113 40.5601 162.467 40.2986 162.484 40.5635C162.501 40.8288 163.134 41.2016 162.305 41.1997C161.477 41.1978 161.344 40.9835 161.39 41.1901C161.437 41.3972 161.816 41.48 161.996 41.6679C162.177 41.8562 162.417 41.8938 162.224 42.0782C162.06 42.1985 161.864 42.2661 161.661 42.2719C161.661 42.2719 161.565 42.0763 161.576 42.2646C161.588 42.4525 161.772 42.4226 161.802 42.6447C161.834 42.8648 161.58 43.1355 161.331 42.9399C161.083 42.7463 161.186 42.5223 161.009 42.6615C160.832 42.8007 160.567 42.6823 160.553 42.8817C160.54 43.083 160.487 43.3108 160.623 43.4722C160.76 43.6325 160.86 43.6118 160.838 43.7718C160.813 43.9336 160.617 44.0463 160.939 44.2004C161.158 44.3164 161.391 44.4019 161.633 44.4547C161.719 44.4816 161.81 44.4895 161.9 44.4777C161.99 44.466 162.076 44.435 162.153 44.3868C162.213 44.3926 162.62 44.5559 162.595 44.4205C162.569 44.2871 162.66 44.2568 162.482 44.1156C162.303 43.9731 162.173 43.9143 162.292 43.779C162.381 43.6671 162.458 43.5468 162.524 43.4197C162.59 43.4223 162.655 43.4383 162.715 43.4668C162.775 43.4953 162.828 43.5356 162.872 43.5854C162.991 43.7008 163.143 43.7753 163.307 43.7978C163.437 43.8334 163.697 43.7886 163.603 43.6379C163.509 43.4895 163.356 43.3518 163.385 43.2521C163.411 43.1543 163.371 42.9101 163.626 43.0584C163.88 43.2073 163.931 43.3349 164.029 43.1509C164.152 42.9971 164.31 42.874 164.489 42.7911C164.489 42.7911 164.72 42.8513 164.539 43.0604C164.357 43.2675 164.28 43.3841 164.3 43.4255C164.319 43.4669 164.76 43.4857 164.762 43.5232C164.766 43.5627 164.739 43.8243 164.538 43.845C164.336 43.8638 164.281 43.7959 164.28 43.9129C164.28 44.0295 164.265 44.0743 164.585 44.3151C164.903 44.5559 165.14 44.5617 165.231 44.7967C165.263 44.8528 165.278 44.9167 165.274 44.981C165.271 45.0453 165.249 45.1073 165.212 45.1599C165.176 45.2654 165.199 45.3444 165.395 45.5192C165.593 45.6926 165.728 45.7133 165.531 45.7807C165.331 45.8467 165.276 45.7793 165.105 45.7566C165.035 45.7415 164.963 45.7489 164.898 45.7776C164.833 45.8064 164.779 45.855 164.743 45.9166C164.675 46.0331 164.444 46.127 164.656 46.2966C164.871 46.4637 165.199 46.4242 164.978 46.5673C164.82 46.6628 164.639 46.713 164.455 46.7122C164.37 46.7199 163.989 46.575 164.304 46.8611C164.617 47.1467 165.005 47.5325 165.118 47.2878C165.173 47.1098 165.266 46.946 165.391 46.8081C165.596 46.5634 165.645 46.4208 165.785 46.481C165.924 46.5413 166.173 46.5807 166.171 46.6973C166.169 46.8139 165.749 47.1149 165.679 47.2088C165.608 47.3032 165.094 47.651 165.24 47.8205C165.385 47.9896 165.658 48.031 165.581 48.1326C165.502 48.2342 165.231 48.2082 165.042 48.174C164.854 48.1403 164.779 48.0257 164.63 48.0878C164.483 48.1514 164.21 48.1254 164.449 48.4283C164.689 48.7308 164.788 48.7101 164.696 48.8719C164.606 49.0338 164.212 49.2298 164.696 49.1205C165.178 49.0111 165.082 48.8156 165.201 48.8271C165.319 48.8382 165.261 48.7086 165.656 49.0713C166.05 49.4364 166.766 49.2389 166.393 49.4836C166.018 49.7283 165.672 49.3218 165.766 49.7355C165.86 50.1478 166.333 50.4113 166.065 50.4787C165.8 50.5466 165.625 50.4676 165.514 50.5822C165.402 50.6955 165.302 50.7176 165.448 50.8703C165.593 51.0244 165.695 51.034 165.704 51.1752C165.713 51.3163 165.387 51.2691 165.448 51.3991C165.506 51.5287 165.44 51.5701 165.875 51.7657C166.057 51.8637 166.257 51.925 166.463 51.9463C166.548 51.9708 166.701 51.9689 166.489 52.3677C166.277 52.7684 165.888 52.4978 166.299 52.8474C166.71 53.1976 166.951 53.267 166.704 53.384C166.524 53.4559 166.329 53.4848 166.135 53.4683L166.36 53.8016C166.36 53.8016 166.81 53.9687 166.612 54.0742C166.416 54.1797 166.32 54.2645 166.198 54.1908C166.073 54.1156 165.958 54.1513 165.899 54.0217C165.839 53.8917 165.789 53.8709 165.789 53.8709C165.757 53.7878 165.706 53.7136 165.64 53.6547C165.551 53.6003 165.252 53.1523 165.284 53.3874C165.301 53.699 165.384 54.0035 165.527 54.2813C165.663 54.4557 165.771 54.6497 165.849 54.8568C165.872 54.9358 165.971 55.1637 166.098 55.0355C166.226 54.9079 166.203 54.8116 166.418 54.7552C166.634 54.6989 166.878 54.5351 166.889 54.6912C166.898 54.8477 167.005 54.9512 166.791 55.0245C166.576 55.0957 166.244 54.9397 166.482 55.2277C166.719 55.5133 166.681 55.4329 166.883 55.6848C166.984 55.8232 167.078 55.9669 167.164 56.1154C167.329 56.349 167.117 56.4545 167.416 56.3581C167.714 56.2623 167.554 56.1212 167.91 56.14C168.266 56.1588 168.328 56.0725 168.416 56.1419C168.505 56.2136 168.946 56.2079 168.718 56.3581C168.49 56.507 168.418 56.4371 168.424 56.5166C168.428 56.5937 168.776 57.032 168.895 57.0113C169.012 56.9925 169.396 56.9188 169.396 56.9188C169.396 56.9188 169.415 56.6727 169.539 56.7931C169.666 56.9135 169.745 56.8138 169.911 57.03C170.076 57.2482 170.212 57.2612 170.137 57.4101C170.098 57.4773 170.037 57.528 169.963 57.5526C169.89 57.5772 169.81 57.574 169.739 57.5435C169.651 57.4722 169.549 57.478 169.524 57.6152C169.5 57.7525 169.622 57.8425 169.454 57.8425C169.285 57.8411 169.251 57.5738 169.168 57.6133C169.087 57.6508 168.999 57.5964 168.995 57.8146C168.991 58.0309 169.14 57.9668 168.997 58.1099C168.853 58.251 168.853 58.251 168.645 58.1532C168.523 58.0973 168.409 58.0238 168.309 57.935C168.309 57.935 168.051 57.8787 168.007 57.9837C167.965 58.0892 167.878 58.0646 167.851 58.2024C167.827 58.3396 167.81 58.3228 167.786 58.475C167.761 58.6291 167.876 58.5785 167.584 58.7664C167.29 58.9566 167.177 59.0395 167.237 59.1844C167.298 59.3309 167.589 59.4214 167.463 59.549C167.335 59.6772 167.262 59.8409 167.077 59.6059C166.894 59.3704 166.934 59.4667 166.851 59.2258C166.768 58.985 166.634 59.0187 166.657 58.8342C166.68 58.6498 166.959 58.5048 166.734 58.4542C166.512 58.4018 166.401 58.251 166.41 58.407C166.42 58.5636 166.48 58.6931 166.452 58.7837C166.423 58.8737 166.047 58.8232 166.024 58.7119C165.999 58.6011 166.048 58.3093 165.853 58.4167C165.656 58.5221 165.562 58.6517 165.61 58.8439C165.655 59.0336 165.751 59.2143 165.757 59.3082C165.762 59.4026 165.868 59.4739 165.681 59.457C165.556 59.4416 165.435 59.4087 165.319 59.3592C165.295 59.4174 165.287 59.4813 165.297 59.5437C165.375 59.7945 165.475 60.038 165.596 60.2715C165.705 60.2625 165.815 60.2754 165.919 60.3094C166.022 60.3434 166.118 60.3978 166.201 60.4694C166.487 60.7136 166.542 61.0619 166.701 60.8735C166.859 60.6876 166.821 60.3731 167.062 60.428C167.301 60.4805 167.346 60.3919 167.563 60.6139C167.78 60.8379 167.812 61.058 167.938 60.9304C168.066 60.8022 167.654 60.7006 168.215 60.4901C168.778 60.2792 169.034 60.3206 169.044 60.2113C169.053 60.1043 168.755 59.9199 169.127 59.9083C169.359 59.8916 169.593 59.9037 169.822 59.9444C170.027 59.9801 169.993 59.6959 170.297 59.679C170.6 59.6602 170.756 59.457 170.768 59.6453C170.779 59.8332 170.47 60.0215 170.517 60.2286C170.564 60.4333 171.214 60.5744 171.327 60.4916C171.442 60.4092 171.645 60.1645 171.612 60.4261C171.608 60.5421 171.575 60.6554 171.516 60.7556C171.457 60.8557 171.374 60.9396 171.274 60.9997C171.063 61.1182 170.843 61.1124 170.832 61.2049C170.821 61.2969 171.233 61.4154 171.421 61.4495C171.61 61.4813 171.796 61.4833 171.523 61.7221C171.252 61.961 171.079 61.9124 170.954 62.0723C170.828 62.2322 170.905 62.394 170.837 62.6368C170.796 62.7582 170.718 62.8634 170.613 62.9371C170.508 63.0108 170.382 63.0492 170.253 63.0467C169.985 63.0345 169.717 63.0781 169.466 63.1748C169.219 63.2745 169.206 63.615 168.688 63.1613C168.168 62.7081 168.104 63.2933 168.113 63.4344C168.121 63.5736 168.656 63.47 168.477 63.8409C168.296 64.2132 167.703 64.1867 168.209 64.4521C168.718 64.7194 169.268 65.1293 169.347 64.7945C169.428 64.4598 169.417 63.9931 169.816 63.9064C170.218 63.8202 169.978 63.5172 170.574 63.8539C171.171 64.1906 171.678 64.1776 171.636 64.3278C171.595 64.4805 171.269 64.6664 171.256 64.744C171.244 64.8191 171.355 64.7213 171.383 64.8943C171.412 65.0691 171.062 65.1596 170.933 65.2555C170.803 65.3533 170.694 65.2329 170.675 65.4645C170.657 65.6957 170.801 65.8498 170.845 66.0097C170.888 66.1697 171.033 66.3074 170.826 66.2414C170.619 66.1735 170.583 65.8913 170.485 65.9288C170.385 65.9649 170.02 66.0699 170.02 66.0699C170.02 66.0699 169.792 66.2207 170.01 66.4577C170.229 66.6966 170.389 66.8358 170.169 66.8151C169.946 66.7944 169.673 66.4726 169.673 66.4726C169.564 66.4962 169.459 66.5329 169.358 66.5819C169.244 66.6499 169.17 66.8131 169.353 67.0332C169.535 67.2519 169.794 67.3232 169.615 67.4306C169.435 67.5375 169.409 67.6599 169.293 67.6955C169.176 67.7316 169.391 67.643 168.846 67.5751C168.3 67.5077 167.917 67.3309 167.878 67.5303C167.84 67.7278 167.622 67.4908 167.814 67.8352C168.004 68.1791 167.72 68.2451 168.269 68.3751C168.82 68.5047 169.831 68.7267 170.142 68.8173C170.451 68.9092 170.95 69.0354 171.258 69.0956C171.566 69.1558 173.611 69.374 172.52 69.2459C162.891 68.1169 167.164 68.8904 167.849 69.242C158.055 67.9933 147.496 67.0729 136.396 66.5445Z" fill="white"/>
<path fill-rule="evenodd" clip-rule="evenodd" d="M102.5 65.2368C140.861 65.2368 176.305 68.4109 205 73.7803C175.22 69.615 140.106 67.2068 102.5 67.2068C69.0084 67.2068 37.4929 69.1165 9.96041 72.4765C6.57869 72.8907 3.25855 73.3253 0 73.7803C28.6972 68.4109 64.1403 65.2368 102.5 65.2368Z" fill="white"/>
</svg>
