<svg width="38" height="38" viewBox="0 0 38 38" fill="none" xmlns="http://www.w3.org/2000/svg">
<g filter="url(#filter0_b_222_1009)">
<circle cx="19" cy="19" r="19" fill="#F4F2EF"/>
</g>
<g clip-path="url(#clip0_222_1009)">
<path d="M25.5092 22.5281C24.4218 21.5981 23.3183 21.0347 22.2442 21.9633L21.6029 22.5246C21.1337 22.932 20.2613 24.8356 16.8882 20.9553C13.5157 17.08 15.5226 16.4766 15.9925 16.0727L16.6374 15.5107C17.7058 14.58 17.3026 13.4083 16.532 12.2022L16.067 11.4717C15.2929 10.2684 14.45 9.47819 13.3788 10.4075L12.8 10.9133C12.3265 11.2582 11.0031 12.3793 10.6821 14.5091C10.2958 17.0645 11.5145 19.9909 14.3067 23.2017C17.0954 26.414 19.8258 28.0275 22.4121 27.9994C24.5616 27.9762 25.8597 26.8228 26.2657 26.4035L26.8466 25.897C27.915 24.9684 27.2512 24.0229 26.1632 23.0908L25.5092 22.5281Z" fill="#927B58"/>
</g>
<defs>
<filter id="filter0_b_222_1009" x="-5.52" y="-5.52" width="49.04" height="49.04" filterUnits="userSpaceOnUse" color-interpolation-filters="sRGB">
<feFlood flood-opacity="0" result="BackgroundImageFix"/>
<feGaussianBlur in="BackgroundImageFix" stdDeviation="2.76"/>
<feComposite in2="SourceAlpha" operator="in" result="effect1_backgroundBlur_222_1009"/>
<feBlend mode="normal" in="SourceGraphic" in2="effect1_backgroundBlur_222_1009" result="shape"/>
</filter>
<clipPath id="clip0_222_1009">
<rect width="18" height="18" fill="white" transform="translate(10 10)"/>
</clipPath>
</defs>
</svg>
